<?xml version="1.0" encoding="utf-8"?>
<!-- Generator: Adobe Illustrator 16.0.0, SVG Export Plug-In . SVG Version: 6.00 Build 0)  -->
<!DOCTYPE svg PUBLIC "-//W3C//DTD SVG 1.1//EN" "http://www.w3.org/Graphics/SVG/1.1/DTD/svg11.dtd">
<svg version="1.1" id="Capa_1" xmlns="http://www.w3.org/2000/svg" xmlns:xlink="http://www.w3.org/1999/xlink" x="0px" y="0px"
	 width="640px" height="640px" viewBox="0 0 640 640" enable-background="new 0 0 640 640" xml:space="preserve">
<g id="layer1" transform="translate(0.5,-401.86218)">
	<path id="path3759" fill="none" stroke="#000000" d="M11.5,431.4h127.9L11.5,559.4V431.4z"/>
	<path id="path3759-7" fill="none" stroke="#000000" d="M263.1,563.6H135.1l127.9-127.9V563.6z"/>
	<path id="path3759-1" fill="none" stroke="#000000" d="M11.5,602h85.3
		l-85.3,85.3V602z"/>
	<path id="path3759-1-7" fill="none" stroke="#000000" d="M220.4,683
		v-85.3L135.1,683H220.4z"/>
	<path id="path3804" fill="none" stroke="#000000" d="M263.1,606.3
		l85.3,85.3"/>
	<path id="path3806" fill="none" stroke="#000000" d="M263.1,648.9
		l42.6,42.6"/>
	<path id="path3808" fill="none" stroke="#000000" d="M305.7,606.3
		l42.6,42.6"/>
	<path id="path3804-5" fill="none" stroke="#000000" d="M391,691.6
		l85.3-85.3"/>
	<path id="path3806-8" fill="none" stroke="#000000" d="M433.6,691.6
		l42.6-42.6"/>
	<path id="path3808-8" fill="none" stroke="#000000" d="M391,648.9
		l42.6-42.6"/>
	<path id="path3834" fill="none" stroke="#000000" d="M305.7,435.7l127.9,127.9"/>
	<path id="path3836" fill="none" stroke="#000000" d="M476.3,563.6l127.9-127.9"/>
	<path id="path3856" fill="none" stroke="#000000" d="M189.3,739.9l85.3,85.3l0,0"/>
	<path id="path3858" fill="none" stroke="#000000" d="M232,782.5l-42.6,42.6l0,0l0,0"/>
	
		<path id="path3856-9"  fill="none" stroke="#000000" stroke-width="1.2" d="
		M96.8,829.7l-85.3-85.3l0,0"/>
	
		<path id="path3858-6" fill="none" stroke="#000000" stroke-width="1.2" d="
		M54.1,787l42.6-42.6"/>
</g>
</svg>
