<?xml version="1.0" encoding="UTF-8" standalone="no"?>
<!-- Created with Inkscape (http://www.inkscape.org/) -->

<svg
   xmlns:dc="http://purl.org/dc/elements/1.1/"
   xmlns:cc="http://creativecommons.org/ns#"
   xmlns:rdf="http://www.w3.org/1999/02/22-rdf-syntax-ns#"
   xmlns:svg="http://www.w3.org/2000/svg"
   xmlns="http://www.w3.org/2000/svg"
   xmlns:sodipodi="http://sodipodi.sourceforge.net/DTD/sodipodi-0.dtd"
   xmlns:inkscape="http://www.inkscape.org/namespaces/inkscape"
   width="640"
   height="640"
   id="svg2"
   version="1.1"
   inkscape:version="0.48.4 r"
   sodipodi:docname="shape.svg">
  <defs
     id="defs4" />
  <sodipodi:namedview
     id="base"
     pagecolor="#ffffff"
     bordercolor="#666666"
     borderopacity="1.0"
     inkscape:pageopacity="0.0"
     inkscape:pageshadow="2"
     inkscape:zoom="0.35"
     inkscape:cx="507.2364"
     inkscape:cy="383.10215"
     inkscape:document-units="px"
     inkscape:current-layer="layer1"
     showgrid="false"
     inkscape:window-width="1366"
     inkscape:window-height="715"
     inkscape:window-x="-8"
     inkscape:window-y="-8"
     inkscape:window-maximized="1" />
  <metadata
     id="metadata7">
    <rdf:RDF>
      <cc:Work
         rdf:about="">
        <dc:format>image/svg+xml</dc:format>
        <dc:type
           rdf:resource="http://purl.org/dc/dcmitype/StillImage" />
        <dc:title />
      </cc:Work>
    </rdf:RDF>
  </metadata>
  <g
     inkscape:label="Layer 1"
     inkscape:groupmode="layer"
     id="layer1"
     transform="translate(0,-412.36218)">
    <path
       style="fill:#000000;fill-opacity:1"
       d="M 317.15625 5.90625 C 145.26762 5.90625 5.90625 145.26762 5.90625 317.15625 C 5.90625 489.04488 145.26762 628.375 317.15625 628.375 C 489.04488 628.375 628.375 489.04488 628.375 317.15625 C 628.375 145.26762 489.04488 5.90625 317.15625 5.90625 z M 313.4375 145.15625 C 406.53693 145.15625 482 220.61932 482 313.71875 C 482 406.81818 406.53693 482.28125 313.4375 482.28125 C 220.33807 482.28125 144.84375 406.81818 144.84375 313.71875 C 144.84375 220.61932 220.33807 145.15625 313.4375 145.15625 z M 312.28125 228.09375 C 261.67978 228.09375 220.65625 269.11729 220.65625 319.71875 C 220.65625 370.32022 261.67978 411.34375 312.28125 411.34375 C 362.88271 411.34375 403.90625 370.32022 403.90625 319.71875 C 403.90625 269.11729 362.88271 228.09375 312.28125 228.09375 z M 313.375 271.09375 C 340.78209 271.09375 363 293.31165 363 320.71875 C 363 348.12584 340.78209 370.34375 313.375 370.34375 C 285.96791 370.34375 263.75 348.12584 263.75 320.71875 C 263.75 293.31165 285.96791 271.09375 313.375 271.09375 z "
       transform="translate(0,412.36218)"
       id="path3041" />
  </g>
</svg>
