<?xml version="1.0" encoding="UTF-8" standalone="no"?>
<!-- Created with Inkscape (http://www.inkscape.org/) -->

<svg
   xmlns:dc="http://purl.org/dc/elements/1.1/"
   xmlns:cc="http://creativecommons.org/ns#"
   xmlns:rdf="http://www.w3.org/1999/02/22-rdf-syntax-ns#"
   xmlns:svg="http://www.w3.org/2000/svg"
   xmlns="http://www.w3.org/2000/svg"
   xmlns:sodipodi="http://sodipodi.sourceforge.net/DTD/sodipodi-0.dtd"
   xmlns:inkscape="http://www.inkscape.org/namespaces/inkscape"
   version="1.1"
   width="640"
   height="640"
   id="svg3832"
   inkscape:version="0.48.4 r"
   sodipodi:docname="shape2.svg">
  <sodipodi:namedview
     pagecolor="#ffffff"
     bordercolor="#666666"
     borderopacity="1"
     objecttolerance="10"
     gridtolerance="10"
     guidetolerance="10"
     inkscape:pageopacity="0"
     inkscape:pageshadow="2"
     inkscape:window-width="1366"
     inkscape:window-height="715"
     id="namedview3155"
     showgrid="false"
     inkscape:zoom="0.36875"
     inkscape:cx="320"
     inkscape:cy="320"
     inkscape:window-x="-8"
     inkscape:window-y="-8"
     inkscape:window-maximized="1"
     inkscape:current-layer="svg3832" />
  <defs
     id="defs3834" />
  <metadata
     id="metadata3837">
    <rdf:RDF>
      <cc:Work
         rdf:about="">
        <dc:format>image/svg+xml</dc:format>
        <dc:type
           rdf:resource="http://purl.org/dc/dcmitype/StillImage" />
        <dc:title />
      </cc:Work>
    </rdf:RDF>
  </metadata>
  <path
     style="fill:#000000;fill-opacity:1"
     d="M 195.25 4.28125 L 245.21875 133.59375 L 378.03125 126.34375 L 195.25 4.28125 z M 245.21875 133.59375 L 127.46875 140.03125 L 97.1875 254 L 175.3125 304.46875 L 127.40625 254.15625 L 257.4375 268.21875 L 287.71875 243.59375 L 245.21875 133.59375 z M 287.71875 243.59375 L 298.96875 272.71875 L 360.53125 279.375 L 395.28125 156.125 L 287.71875 243.59375 z M 360.53125 279.375 L 346.6875 328.625 L 429.375 326.34375 C 424.8403 313.26243 421.31112 299.66958 418.875 285.6875 L 360.53125 279.375 z M 346.6875 328.625 L 320.875 329.34375 L 335.6875 367.71875 L 346.6875 328.625 z M 320.875 329.34375 L 298.96875 272.71875 L 257.4375 268.21875 L 196.21875 318 L 207.3125 325.15625 C 208.54989 323.89075 209.78159 322.62955 211.03125 321.375 L 213.90625 329.4375 L 281.9375 373.4375 L 276.46875 330.59375 L 320.875 329.34375 z M 281.9375 373.4375 L 284.5625 394.40625 L 312.65625 393.28125 L 281.9375 373.4375 z M 284.5625 394.40625 L 261.6875 395.28125 L 288.25 423.21875 L 284.5625 394.40625 z M 288.25 423.21875 L 307.53125 574.90625 C 335.23558 560.73522 360.25361 542.77296 382.09375 521.84375 L 288.25 423.21875 z M 382.09375 521.84375 L 385.375 525.28125 L 330.96875 646.46875 L 641.03125 564.84375 L 621.53125 490.75 C 557.27955 480.74289 501.25338 444.45425 463.8125 392.65625 C 447.49831 441.56923 419.45398 486.04177 382.09375 521.84375 z M 261.6875 395.28125 L 222.78125 354.40625 L 237.6875 396.25 L 261.6875 395.28125 z M 237.6875 396.25 L 145.71875 399.875 C 105.51269 457.97825 76.090648 523.31503 59.46875 592.5625 C 116.81065 612.35806 180.46205 615.97732 243.53125 599.375 C 264.18101 593.93916 283.79879 586.58635 302.28125 577.5625 L 237.6875 396.25 z M 145.71875 399.875 C 162.37607 375.80289 180.90031 352.97174 201.125 331.625 L 191.65625 321.6875 L 93.03125 401.9375 L 145.71875 399.875 z M 191.65625 321.6875 L 196.21875 318 L 175.3125 304.46875 L 191.65625 321.6875 z M 201.125 331.625 L 222.78125 354.40625 L 213.90625 329.4375 L 207.3125 325.15625 C 205.22761 327.28849 203.1744 329.4619 201.125 331.625 z M 97.1875 254 L -14.53125 181.78125 L 61.59375 388 L 97.1875 254 z M 127.46875 140.03125 L 161.625 11.46875 L -10.96875 147.5625 L 127.46875 140.03125 z M 420.03125 188.03125 C 417.19291 189.06323 414.37515 190.11513 411.5625 191.1875 L 388.6875 268.84375 L 417.125 274.25 C 415.67644 263.04584 414.90625 251.61891 414.90625 240 C 414.90625 222.184 416.68506 204.80976 420.03125 188.03125 z M 255.375 281.28125 C 253.17297 297.72599 250.97606 314.14805 248.78125 330.59375 C 241.03441 322.8218 233.28093 315.05038 225.53125 307.28125 C 235.14741 298.28778 245.10922 289.62516 255.375 281.28125 z "
     id="path3157" />
</svg>
