<?xml version="1.0" encoding="UTF-8" standalone="no"?>
<!-- Created with Inkscape (http://www.inkscape.org/) -->

<svg
   xmlns:dc="http://purl.org/dc/elements/1.1/"
   xmlns:cc="http://creativecommons.org/ns#"
   xmlns:rdf="http://www.w3.org/1999/02/22-rdf-syntax-ns#"
   xmlns:svg="http://www.w3.org/2000/svg"
   xmlns="http://www.w3.org/2000/svg"
   xmlns:sodipodi="http://sodipodi.sourceforge.net/DTD/sodipodi-0.dtd"
   xmlns:inkscape="http://www.inkscape.org/namespaces/inkscape"
   version="1.1"
   width="640"
   height="640"
   id="svg3832"
   inkscape:version="0.48.4 r"
   sodipodi:docname="shape6.svg">
  <sodipodi:namedview
     pagecolor="#ffffff"
     bordercolor="#666666"
     borderopacity="1"
     objecttolerance="10"
     gridtolerance="10"
     guidetolerance="10"
     inkscape:pageopacity="0"
     inkscape:pageshadow="2"
     inkscape:window-width="1366"
     inkscape:window-height="715"
     id="namedview3105"
     showgrid="false"
     inkscape:zoom="0.26074563"
     inkscape:cx="339.09595"
     inkscape:cy="-123.91445"
     inkscape:window-x="-8"
     inkscape:window-y="-8"
     inkscape:window-maximized="1"
     inkscape:current-layer="svg3832" />
  <defs
     id="defs3834" />
  <metadata
     id="metadata3837">
    <rdf:RDF>
      <cc:Work
         rdf:about="">
        <dc:format>image/svg+xml</dc:format>
        <dc:type
           rdf:resource="http://purl.org/dc/dcmitype/StillImage" />
        <dc:title></dc:title>
      </cc:Work>
    </rdf:RDF>
  </metadata>
  <path
     style="fill:#000000;fill-opacity:1"
     d="M 522.21875 -31.75 L 312.90625 145.40625 L 80.21875 0.25 L 150.9375 173.25 C 172.03657 160.22688 195.64522 152.9375 220.53125 152.9375 C 223.80999 152.9375 227.05044 153.09444 230.28125 153.34375 L 226.125 114.34375 L 269.5 162.71875 C 273.60639 164.40586 277.63471 166.28414 281.59375 168.375 L 345.625 139.75 L 315.09375 192.40625 C 322.48671 199.29485 329.40951 206.97618 335.8125 215.34375 C 340.5736 213.66859 345.69651 212.75 351.03125 212.75 C 364.45624 212.75 376.52283 218.5233 384.90625 227.71875 L 381.4375 195.03125 L 431.90625 251.28125 L 461.78125 237.9375 L 456.09375 234.40625 L 522.21875 -31.75 z M 461.78125 237.9375 L 483.125 251.125 L 500.90625 220.4375 L 461.78125 237.9375 z M 483.125 251.125 L 463 285.84375 L 513.6875 341.90625 L 439.78125 326.0625 L 402.09375 391.625 L 396.96875 342 L 382.21875 338.84375 C 383.07304 347.67161 383.5 356.65061 383.5 365.78125 C 383.5 443.66224 351.48374 511.77162 303.6875 548.875 L 350.5 664.46875 L 415.71875 398.09375 L 689.28125 378.75 L 483.125 251.125 z M 303.6875 548.875 L 247.5625 410.28125 L 63.6875 423.90625 C 83.05382 513.21229 145.94106 578.625 220.53125 578.625 C 250.91182 578.625 279.33956 567.77588 303.6875 548.875 z M 63.6875 423.90625 C 59.681579 405.43331 57.53125 385.92967 57.53125 365.78125 C 57.53125 363.96533 57.559129 362.14878 57.59375 360.34375 L -25.9375 430.5625 L 63.6875 423.90625 z M 57.59375 360.34375 L 184 254.09375 L 170.59375 221.3125 L 165.03125 220.15625 L 169.34375 218.25 L 150.9375 173.25 C 96.894771 206.60714 59.18075 277.60273 57.59375 360.34375 z M 169.34375 218.25 L 170.59375 221.3125 L 239 235.71875 L 244.71875 290.9375 L 262.90625 282.875 L 282.65625 248.53125 L 277.25 197.8125 L 311.28125 235.75 C 314.30597 230.49864 318.34557 225.8932 323.125 222.21875 L 307.6875 205.15625 L 315.09375 192.40625 C 304.76168 182.77907 293.52413 174.67571 281.59375 168.375 L 276.59375 170.625 L 269.5 162.71875 C 257.0122 157.58812 243.86483 154.39196 230.28125 153.34375 L 234.15625 189.5 L 169.34375 218.25 z M 323.125 222.21875 L 344.9375 246.375 L 353.4375 242.5625 C 348.14673 232.84686 342.24854 223.75452 335.8125 215.34375 C 331.20044 216.96648 326.92776 219.29662 323.125 222.21875 z M 353.4375 242.5625 C 358.76528 252.3461 363.48155 262.74271 367.5 273.65625 L 386.34375 241.125 L 385 228.46875 L 353.4375 242.5625 z M 385 228.46875 L 385.40625 228.28125 C 385.24225 228.09394 385.07316 227.90162 384.90625 227.71875 L 385 228.46875 z M 385.40625 228.28125 C 387.14732 230.25219 388.74073 232.37261 390.125 234.625 L 396.75 223.21875 L 385.40625 228.28125 z M 390.125 234.625 L 386.34375 241.125 L 389.46875 270.1875 L 369.40625 279.0625 C 371.47965 285.12342 373.32878 291.34283 374.96875 297.6875 C 388.10882 289.62818 396.875 275.13698 396.875 258.59375 C 396.875 249.80518 394.41162 241.60028 390.125 234.625 z M 374.96875 297.6875 C 373.24598 298.74414 371.45702 299.67433 369.59375 300.5 L 377.75 309.5625 C 376.91177 305.5567 375.97886 301.59538 374.96875 297.6875 z M 377.75 309.5625 C 377.99638 310.73994 378.23753 311.90826 378.46875 313.09375 L 381.5 313.71875 L 377.75 309.5625 z M 381.5 313.71875 L 395.65625 329.375 L 394.3125 316.40625 L 381.5 313.71875 z M 395.65625 329.375 L 396.96875 342 L 409.5 344.6875 L 395.65625 329.375 z M 378.46875 313.09375 L 320.34375 300.8125 L 327.25 297.78125 C 314.03429 289.73229 305.1875 275.19472 305.1875 258.59375 C 305.1875 255.65945 305.47364 252.77685 306 250 L 284.46875 245.40625 L 282.65625 248.53125 L 285.28125 272.96875 L 262.90625 282.875 L 247.21875 310.15625 L 290.125 319.1875 L 297.90625 394.375 L 335.59375 328.84375 L 382.21875 338.84375 C 381.37125 330.08604 380.10564 321.48638 378.46875 313.09375 z M 247.21875 310.15625 L 246.6875 310.03125 L 246.78125 310.90625 L 247.21875 310.15625 z M 246.6875 310.03125 L 244.71875 290.9375 L 216.15625 303.59375 L 246.6875 310.03125 z M 306 250 L 358.375 261.21875 L 344.9375 246.375 L 327.71875 254.0625 L 311.28125 235.75 C 308.77325 240.10502 306.96693 244.89516 306 250 z M 327.25 297.78125 C 334.18647 302.00239 342.3168 304.4375 351.03125 304.4375 C 357.63384 304.4375 363.92201 303.01234 369.59375 300.5 L 358.8125 288.59375 L 362.59375 282.09375 L 327.25 297.78125 z M 362.59375 282.09375 L 369.40625 279.0625 C 368.78672 277.25151 368.15682 275.44007 367.5 273.65625 L 362.59375 282.09375 z "
     id="path3130" />
</svg>
