<?xml version="1.0" encoding="UTF-8" standalone="no"?>
<!-- Created with Inkscape (http://www.inkscape.org/) -->

<svg
   xmlns:dc="http://purl.org/dc/elements/1.1/"
   xmlns:cc="http://creativecommons.org/ns#"
   xmlns:rdf="http://www.w3.org/1999/02/22-rdf-syntax-ns#"
   xmlns:svg="http://www.w3.org/2000/svg"
   xmlns="http://www.w3.org/2000/svg"
   xmlns:sodipodi="http://sodipodi.sourceforge.net/DTD/sodipodi-0.dtd"
   xmlns:inkscape="http://www.inkscape.org/namespaces/inkscape"
   version="1.1"
   width="640"
   height="640"
   id="svg3832"
   inkscape:version="0.48.4 r"
   sodipodi:docname="shape6.svg">
  <sodipodi:namedview
     pagecolor="#ffffff"
     bordercolor="#666666"
     borderopacity="1"
     objecttolerance="10"
     gridtolerance="10"
     guidetolerance="10"
     inkscape:pageopacity="0"
     inkscape:pageshadow="2"
     inkscape:window-width="1366"
     inkscape:window-height="715"
     id="namedview3105"
     showgrid="false"
     inkscape:zoom="0.26074563"
     inkscape:cx="339.09595"
     inkscape:cy="599.82307"
     inkscape:window-x="-8"
     inkscape:window-y="-8"
     inkscape:window-maximized="1"
     inkscape:current-layer="svg3832" />
  <defs
     id="defs3834" />
  <metadata
     id="metadata3837">
    <rdf:RDF>
      <cc:Work
         rdf:about="">
        <dc:format>image/svg+xml</dc:format>
        <dc:type
           rdf:resource="http://purl.org/dc/dcmitype/StillImage" />
        <dc:title></dc:title>
      </cc:Work>
    </rdf:RDF>
  </metadata>
  <path
     style="fill:#000000;fill-opacity:1"
     d="m 338.32919,3.3585707 c -37.39248,0 -69.94386,20.6774753 -86.87334,51.2169153 l 0.68076,-0.51278 -3.65139,6.30375 c -2.3433,4.97237 -4.2902,10.16897 -5.79099,15.55162 12.73973,-7.65482 27.22298,-12.69823 42.71173,-14.40227 L 261.83536,47.847352 432.87672,72.293196 C 420.05249,32.306014 382.57436,3.3585707 338.32919,3.3585707 z m 94.54753,68.9346253 c 1.00235,3.12553 1.86013,6.31496 2.55509,9.56615 5.06552,-0.79677 10.26209,-1.21124 15.55163,-1.21124 0.35747,0 0.71318,0.005 1.06977,0.009 l 13.74804,-3.66025 -32.92453,-4.7035 z m 19.17649,8.36375 -16.0202,4.26145 c 1.03641,5.7514 1.57373,11.67674 1.57373,17.726554 0,13.27083 -2.60494,25.93393 -7.32935,37.50425 27.66235,5.43987 51.45356,21.66366 66.82161,44.10862 l 9.24784,5.35775 -27.96462,-105.139234 c -8.37557,-2.40013 -17.20498,-3.72293 -26.32901,-3.81939 z m 26.32901,3.81939 c 1.0582,0.30324 2.10406,0.62652 3.14746,0.96369 l -4.48245,-5.97663 1.33499,5.01294 z m 3.14746,0.96369 68.68711,91.594554 C 548.98644,134.13076 520.53527,98.044366 481.52968,85.440026 z m 68.68711,91.594554 c 0.0277,0.96307 0.0442,1.93016 0.0442,2.89991 0,11.22337 -1.87224,22.00657 -5.30471,32.06693 l 55.70822,32.30565 -50.4477,-67.27249 z m -5.26052,34.96684 -38.60943,-22.38585 15.82573,59.5011 c 10.12913,-10.42102 17.98797,-23.05918 22.7837,-37.11525 z m -22.7837,37.11525 c -2.32099,2.38788 -4.75321,4.66203 -7.30283,6.80771 0.44313,-3.93191 0.67195,-7.9295 0.67192,-11.9798 0,-22.1448 -6.8105,-42.69797 -18.44266,-59.68676 l -68.68709,-39.82948 c -6.15546,13.24664 -15.14823,24.90864 -26.19638,34.20649 0.4431,-3.93189 0.67193,-7.92947 0.67193,-11.97979 0,-9.68336 -1.30204,-19.06467 -3.73983,-27.97347 -15.90191,1.58243 -30.75941,6.6909 -43.79917,14.52605 4.06975,-14.59695 11.388,-27.83665 21.13041,-38.89232 L 360.44098,105.02322 197.45396,148.3715 136.46753,253.55494 172.30966,307.56567 397.9364,145.75451 287.56321,284.8527 498.82302,440.35126 549.69514,352.61145 522.17257,249.11667 z m 27.52257,103.49478 28.02652,105.36028 29.14936,-203.96589 -57.17588,98.60561 z m -50.87212,87.73981 -2.13956,3.6956 14.49069,5.39312 -12.35113,-9.08872 z m -2.13956,3.6956 -151.90904,-56.59233 -49.84654,150.24687 7.18786,4.16421 162.98704,-43.34829 31.58068,-54.47046 z m -31.58068,54.47046 -54.68264,94.31764 164.83485,-123.61726 -110.15221,29.29962 z m -162.98704,43.34829 -9.39815,2.50206 -12.43069,37.46004 120.43445,17.21378 -98.60561,-57.17588 z m -21.82884,39.9621 -19.88378,-2.838 -3.05908,71.98479 22.94286,-69.14679 z m -19.88378,-2.838 1.11396,-26.32905 -64.76159,17.23147 63.64763,9.09758 z m 1.11396,-26.32905 31.20051,-8.29299 2.21029,-6.66627 -31.98736,-18.54875 -1.42344,33.50801 z m 1.42344,-33.50801 1.9362,-45.58509 -81.42718,-0.50397 79.49098,46.08906 z m -79.49098,-46.08906 -27.24851,-15.79916 4.16419,15.65771 23.08432,0.14145 z m -23.08432,-0.14145 -45.94758,-0.29178 71.08305,94.7951 -25.13547,-94.50332 z m -45.94758,-0.29178 -22.465418,-29.96272 -104.714858,29.17587 127.180276,0.78685 z m -22.465418,-29.96272 26.399738,-7.34702 -56.459728,-32.73886 30.05999,40.08588 z m 26.399738,-7.34702 37.84907,21.94381 -8.04547,-30.25451 -29.8036,8.3107 z m 29.8036,-8.3107 10.13199,-2.82032 -42.78244,-134.49194 -2.65236,4.57973 35.30281,132.73253 z M 112.85275,294.27739 91.890332,215.44948 84.401862,191.92312 55.676882,392.89184 112.85275,294.27739 z m -28.450888,-102.35427 0.43322,-3.006 7.05525,26.53236 23.614778,74.24818 20.96242,-36.14272 -62.339118,-93.94631 10.27345,32.31449 z M 197.45396,148.3715 248.48522,60.366456 c 0.92717,-1.96749 1.92058,-3.89681 2.97063,-5.79097 L 87.292922,177.67114 197.45396,148.3715 z m 162.98702,-43.34828 18.82287,-5.0041 C 359.86658,76.131806 330.26392,60.870406 297.09396,60.870406 c -3.95227,0 -7.84875,0.22301 -11.688,0.6454 l 75.03502,43.507414 z m 18.82287,-5.0041 c 1.70752,2.10283 3.33554,4.27437 4.88033,6.50711 5.05749,-4.6085 10.59356,-8.706884 16.52413,-12.200834 l -21.40446,5.693724 z m 21.40446,-5.693724 35.3647,-9.407 c -0.18464,-1.02465 -0.38461,-2.0458 -0.6012,-3.05905 -12.52015,1.96934 -24.2599,6.27797 -34.7635,12.46605 z m -16.52413,12.200834 c -2.69464,2.4554 -5.25465,5.05346 -7.66531,7.78907 l 17.70888,10.27344 c -2.76384,-6.36916 -6.13636,-12.4152 -10.04357,-18.06251 z m 10.04357,18.06251 c 1.97122,4.5427 3.63373,9.24651 4.95988,14.09283 3.48498,-0.34679 7.02388,-0.52163 10.60058,-0.52163 2.83789,0 5.64404,0.11666 8.42562,0.33597 l -23.98608,-13.90717 z m 23.98608,13.90717 10.23808,5.93243 c 0.6549,-1.40934 1.27576,-2.83487 1.86548,-4.27914 -3.95875,-0.77849 -7.99975,-1.32974 -12.10356,-1.65329 z m -146.10921,165.89578 -34.28608,43.19797 31.94315,11.90022 2.34293,-55.09819 z m -2.34293,55.09819 -1.4411,34.06503 53.13546,-14.80895 -51.69436,-19.25608 z m -1.4411,34.06503 -32.83612,9.1418 30.49319,45.95639 2.34293,-55.09819 z m -32.83612,9.1418 -18.84938,-28.40671 -34.28608,43.20682 53.13546,-14.80011 z M 216.59509,374.29 237.77854,347.58966 186.09304,328.34241 216.59509,374.29 z"
     id="path3005"
     inkscape:connector-curvature="0" />
</svg>
