<?xml version="1.0" encoding="utf-8"?>
<!-- Generator: Adobe Illustrator 16.0.0, SVG Export Plug-In . SVG Version: 6.00 Build 0)  -->
<!DOCTYPE svg PUBLIC "-//W3C//DTD SVG 1.1//EN" "http://www.w3.org/Graphics/SVG/1.1/DTD/svg11.dtd">
<svg version="1.1" id="Capa_1" xmlns="http://www.w3.org/2000/svg" xmlns:xlink="http://www.w3.org/1999/xlink" x="0px" y="0px"
	 width="640px" height="640px" viewBox="0 0 640 640" enable-background="new 0 0 640 640" xml:space="preserve">
<circle fill="none" stroke="#000000" cx="168.4" cy="97.6" r="37.2"/>
<path fill="none" stroke="#000000" d="M320.4,60.3c-0.4,0-0.7,0-1.1,0l-36.1,36.1c0,0.4,0,0.7,0,1.1c0,20.6,16.7,37.2,37.2,37.2
	s37.2-16.7,37.2-37.2S341,60.3,320.4,60.3z"/>
<g>
	<path fill="none" stroke="#000000" d="M168.4,174.3c-20.6,0-37.2,16.7-37.2,37.2c0,2.6,0.3,5.2,0.8,7.7l44.1-44.1
		C173.6,174.6,171.1,174.3,168.4,174.3z"/>
	<path fill="none" stroke="#000000" d="M182.6,177.1L134,225.8c5.6,13.5,18.9,23.1,34.4,23.1c20.6,0,37.2-16.7,37.2-37.2
		C205.7,196,196.1,182.7,182.6,177.1z"/>
	<path fill="none" stroke="#000000" d="M182.6,177.1"/>
	<path fill="none" stroke="#000000" d="M176.1,175.1"/>
	<path fill="none" stroke="#000000" d="M132,219.3"/>
	<path fill="none" stroke="#000000" d="M134,225.8"/>
</g>
<g>
	<polygon fill="none" stroke="#000000" points="72.9,62.3 72.9,71.1 75.6,70.7 	"/>
	<polygon fill="none" stroke="#000000" points="46.9,81.2 54.6,86.7 55.8,84.1 	"/>
	<polygon fill="none" stroke="#000000" points="62.4,65.7 65.2,74.2 67.6,73 	"/>
	<polygon fill="none" stroke="#000000" points="103.5,72.2 96.1,77.6 98,79.6 	"/>
	<polygon fill="none" stroke="#000000" points="113.4,91.7 103.7,91.7 104,94.7 	"/>
	<polygon fill="none" stroke="#000000" points="113.4,102.8 103.8,99.7 103.3,102.7 	"/>
	<polygon fill="none" stroke="#000000" points="110,81.2 101.1,84.1 102.3,86.7 	"/>
	<polygon fill="none" stroke="#000000" points="94.5,65.7 89.3,73 91.7,74.2 	"/>
	<polygon fill="none" stroke="#000000" points="84,132.2 83.9,121.3 80.6,121.8 	"/>
	<polygon fill="none" stroke="#000000" points="72.9,132.2 76.2,121.8 72.9,121.3 	"/>
	<polygon fill="none" stroke="#000000" points="94.5,128.8 91.1,118.5 88.1,120 	"/>
	<polygon fill="none" stroke="#000000" points="43.5,91.7 52.8,94.7 53.2,91.7 	"/>
	<polygon fill="none" stroke="#000000" points="110,113.3 101.6,107.3 100,110 	"/>
	<polygon fill="none" stroke="#000000" points="62.4,128.8 68.7,120 65.7,118.5 	"/>
	<polygon fill="none" stroke="#000000" points="43.5,102.8 53.6,102.7 53,99.7 	"/>
	<polygon fill="none" stroke="#000000" points="46.9,113.3 56.8,110 55.3,107.3 	"/>
	<polygon fill="none" stroke="#000000" points="84,62.3 81.3,70.7 83.9,71.1 	"/>
	<polygon fill="none" stroke="#000000" points="53.4,72.2 58.8,79.6 60.8,77.6 	"/>
	<polygon fill="none" stroke="#000000" points="103.5,122.3 97.2,113.7 94.8,115.9 	"/>
	<polygon fill="none" stroke="#000000" points="53.4,122.3 62,115.9 59.7,113.7 	"/>
	<path fill="none" stroke="#000000" d="M59.7,113.7l-2.9-3.7C57.7,111.3,58.6,112.6,59.7,113.7z"/>
	<path fill="none" stroke="#000000" d="M65.7,118.5l-3.7-2.6C63.2,116.9,64.4,117.8,65.7,118.5z"/>
	<path fill="none" stroke="#000000" d="M72.9,121.3l-4.2-1.3C70.1,120.5,71.5,121,72.9,121.3z"/>
	<path fill="none" stroke="#000000" d="M100,110l-2.8,3.7C98.2,112.6,99.2,111.3,100,110z"/>
	<path fill="none" stroke="#000000" d="M67.6,73l5.3-1.8C71.1,71.6,69.3,72.2,67.6,73z"/>
	<path fill="none" stroke="#000000" d="M78.4,121.6c0.7,0,1.5-0.1,2.2-0.1h-4.4C77,121.5,77.7,121.6,78.4,121.6z"/>
	<path fill="none" stroke="#000000" d="M55.3,107.3l-1.7-4.5C54,104.3,54.6,105.8,55.3,107.3z"/>
	<path fill="none" stroke="#000000" d="M88.1,120l-4.2,1.3C85.4,121,86.8,120.5,88.1,120z"/>
	<path fill="none" stroke="#000000" d="M94.8,115.9l-3.7,2.6C92.4,117.8,93.7,116.9,94.8,115.9z"/>
	<path fill="none" stroke="#000000" d="M101.6,107.3c0.7-1.4,1.2-3,1.7-4.5L101.6,107.3z"/>
	<path fill="none" stroke="#000000" d="M98,79.6l3,4.5C100.2,82.5,99.2,81,98,79.6z"/>
	<path fill="none" stroke="#000000" d="M60.8,77.6l4.4-3.4C63.6,75.2,62.1,76.3,60.8,77.6z"/>
	<path fill="none" stroke="#000000" d="M91.7,74.2l4.4,3.4C94.8,76.3,93.3,75.2,91.7,74.2z"/>
	<path fill="none" stroke="#000000" d="M52.8,96.2c0,1.2,0.1,2.4,0.2,3.5l-0.2-5C52.8,95.2,52.8,95.7,52.8,96.2z"/>
	<path fill="none" stroke="#000000" d="M83.9,71.1l5.3,1.8C87.6,72.2,85.8,71.6,83.9,71.1z"/>
	<path fill="none" stroke="#000000" d="M78.4,70.3c-1,0-1.9,0.2-2.8,0.2h5.7C80.3,70.5,79.4,70.3,78.4,70.3z"/>
	<path fill="none" stroke="#000000" d="M53.2,91.7l1.4-5C54,88.3,53.5,90,53.2,91.7z"/>
	<path fill="none" stroke="#000000" d="M55.8,84.1l3-4.5C57.7,81,56.7,82.5,55.8,84.1z"/>
	<path fill="none" stroke="#000000" d="M104.1,96.2c0-0.5,0-1,0-1.5l-0.2,5C104,98.6,104.1,97.4,104.1,96.2z"/>
	<path fill="none" stroke="#000000" d="M102.3,86.7l1.4,5C103.4,90,102.9,88.3,102.3,86.7z"/>
</g>
<g>
	<polygon fill="none" stroke="#000000" points="344.1,190.6 346,192.6 351.5,185.2 	"/>
	<polygon fill="none" stroke="#000000" points="351.7,204.7 352,207.7 361.4,204.7 	"/>
	<polygon fill="none" stroke="#000000" points="351.8,212.7 351.3,215.7 361.4,215.8 	"/>
	<polygon fill="none" stroke="#000000" points="349.1,197.1 350.3,199.7 358,194.2 	"/>
	<polygon fill="none" stroke="#000000" points="337.3,186 339.7,187.2 342.5,178.7 	"/>
	<polygon fill="none" stroke="#000000" points="332,245.2 331.9,234.3 328.6,234.8 	"/>
	<polygon fill="none" stroke="#000000" points="324.2,234.8 320.9,234.3 320.9,245.2 	"/>
	<polygon fill="none" stroke="#000000" points="342.5,241.8 339.1,231.5 336.1,233 	"/>
	<polygon fill="none" stroke="#000000" points="358,226.3 349.6,220.3 348,223 	"/>
	<polygon fill="none" stroke="#000000" points="316.7,233 313.7,231.5 310.4,241.8 	"/>
	<polygon fill="none" stroke="#000000" points="301.6,215.7 301.2,213.6 299,215.7 	"/>
	<polygon fill="none" stroke="#000000" points="304.8,223 303.3,220.3 294.9,226.3 	"/>
	<polygon fill="none" stroke="#000000" points="330.8,184 331.9,184.1 331.9,182.8 	"/>
	<polygon fill="none" stroke="#000000" points="351.5,235.3 345.2,226.7 342.8,228.9 	"/>
	<polygon fill="none" stroke="#000000" points="310,228.9 307.7,226.7 301.4,235.3 	"/>
	<path fill="none" stroke="#000000" d="M304.8,223c0.8,1.3,1.8,2.5,2.9,3.7L304.8,223z"/>
	<path fill="none" stroke="#000000" d="M310,228.9c1.2,1,2.4,1.8,3.7,2.6L310,228.9z"/>
	<path fill="none" stroke="#000000" d="M316.7,233c1.4,0.6,2.8,1,4.2,1.3L316.7,233z"/>
	<path fill="none" stroke="#000000" d="M348,223l-2.8,3.7C346.2,225.6,347.2,224.3,348,223z"/>
	<path fill="none" stroke="#000000" d="M324.2,234.5c0.7,0,1.5,0.1,2.2,0.1c0.7,0,1.5-0.1,2.2-0.1H324.2z"/>
	<path fill="none" stroke="#000000" d="M301.6,215.7c0.4,1.6,1,3.1,1.7,4.5L301.6,215.7z"/>
	<path fill="none" stroke="#000000" d="M336.1,233l-4.2,1.3C333.4,234,334.8,233.5,336.1,233z"/>
	<path fill="none" stroke="#000000" d="M342.8,228.9l-3.7,2.6C340.4,230.8,341.7,229.9,342.8,228.9z"/>
	<path fill="none" stroke="#000000" d="M349.6,220.3c0.7-1.4,1.2-3,1.7-4.5L349.6,220.3z"/>
	<path fill="none" stroke="#000000" d="M349.1,197.1c-0.9-1.6-1.9-3.1-3-4.5L349.1,197.1z"/>
	<path fill="none" stroke="#000000" d="M344.1,190.6c-1.3-1.3-2.8-2.4-4.4-3.4L344.1,190.6z"/>
	<path fill="none" stroke="#000000" d="M337.3,186c-1.7-0.8-3.5-1.4-5.3-1.8L337.3,186z"/>
	<path fill="none" stroke="#000000" d="M352,207.7l-0.2,5c0.2-1.1,0.2-2.3,0.2-3.5C352.1,208.7,352.1,208.2,352,207.7z"/>
	<path fill="none" stroke="#000000" d="M351.7,204.7c-0.3-1.7-0.8-3.4-1.4-5L351.7,204.7z"/>
	<path fill="none" stroke="#000000" d="M331.9,182.8 M301,212.7l0.2,0.8l29.6-29.6 M300.8,209.2 M301,212.7 M299,215.7"/>
	<polyline fill="none" stroke="#000000" points="299,215.7 301.2,213.6 301,212.7 	"/>
	<line fill="none" stroke="#000000" x1="330.8" y1="184" x2="331.9" y2="182.8"/>
	<path fill="none" stroke="#000000" d="M301,212.7"/>
</g>
<g>
	<polygon fill="none" stroke="#000000" points="72.9,184.3 72.9,193.1 75.6,192.7 	"/>
	<polygon fill="none" stroke="#000000" points="46.9,203.2 54.6,208.7 55.8,206.1 	"/>
	<polygon fill="none" stroke="#000000" points="62.4,187.7 65.2,196.2 67.6,195 	"/>
	<polygon fill="none" stroke="#000000" points="96.1,199.6 98,201.6 103.5,194.2 	"/>
	<polygon fill="none" stroke="#000000" points="103.7,213.7 104,216.7 113.4,213.7 	"/>
	<polygon fill="none" stroke="#000000" points="103.8,221.7 103.3,224.7 113.4,224.8 	"/>
	<polygon fill="none" stroke="#000000" points="101.1,206.1 102.3,208.7 110,203.2 	"/>
	<polygon fill="none" stroke="#000000" points="89.3,195 91.7,196.2 94.5,187.7 	"/>
	<polygon fill="none" stroke="#000000" points="84,254.2 83.9,243.3 80.6,243.8 	"/>
	<polygon fill="none" stroke="#000000" points="76.2,243.8 72.9,243.3 72.9,254.2 	"/>
	<polygon fill="none" stroke="#000000" points="94.5,250.8 91.1,240.5 88.1,242 	"/>
	<polygon fill="none" stroke="#000000" points="43.5,213.7 52.8,216.7 53.2,213.7 	"/>
	<polygon fill="none" stroke="#000000" points="110,235.3 101.6,229.3 100,232 	"/>
	<polygon fill="none" stroke="#000000" points="68.7,242 65.7,240.5 62.4,250.8 	"/>
	<polygon fill="none" stroke="#000000" points="43.5,224.8 47.9,224.8 49.9,222.7 	"/>
	<polygon fill="none" stroke="#000000" points="56.8,232 55.3,229.3 46.9,235.3 	"/>
	<polygon fill="none" stroke="#000000" points="84,184.3 81.9,190.7 83.9,188.7 	"/>
	<polygon fill="none" stroke="#000000" points="53.4,194.2 58.8,201.6 60.8,199.6 	"/>
	<polygon fill="none" stroke="#000000" points="103.5,244.3 97.2,235.7 94.8,237.9 	"/>
	<polygon fill="none" stroke="#000000" points="62,237.9 59.7,235.7 53.4,244.3 	"/>
	<path fill="none" stroke="#000000" d="M56.8,232c0.8,1.3,1.8,2.5,2.9,3.7L56.8,232z"/>
	<path fill="none" stroke="#000000" d="M62,237.9c1.2,1,2.4,1.8,3.7,2.6L62,237.9z"/>
	<path fill="none" stroke="#000000" d="M68.7,242c1.4,0.6,2.8,1,4.2,1.3L68.7,242z"/>
	<path fill="none" stroke="#000000" d="M100,232l-2.8,3.7C98.2,234.6,99.2,233.3,100,232z"/>
	<path fill="none" stroke="#000000" d="M67.6,195l5.3-1.8C71.1,193.6,69.3,194.2,67.6,195z"/>
	<path fill="none" stroke="#000000" d="M76.2,243.5c0.7,0,1.5,0.1,2.2,0.1c0.7,0,1.5-0.1,2.2-0.1H76.2z"/>
	<path fill="none" stroke="#000000" d="M55.3,229.3l-1.1-2.9l-0.1,0.1C54.5,227.4,54.8,228.4,55.3,229.3z"/>
	<path fill="none" stroke="#000000" d="M88.1,242l-4.2,1.3C85.4,243,86.8,242.5,88.1,242z"/>
	<path fill="none" stroke="#000000" d="M94.8,237.9l-3.7,2.6C92.4,239.8,93.7,238.9,94.8,237.9z"/>
	<path fill="none" stroke="#000000" d="M101.6,229.3c0.7-1.4,1.2-3,1.7-4.5L101.6,229.3z"/>
	<path fill="none" stroke="#000000" d="M101.1,206.1c-0.9-1.6-1.9-3.1-3-4.5L101.1,206.1z"/>
	<path fill="none" stroke="#000000" d="M60.8,199.6l4.4-3.4C63.6,197.2,62.1,198.3,60.8,199.6z"/>
	<path fill="none" stroke="#000000" d="M96.1,199.6c-1.3-1.3-2.8-2.4-4.4-3.4L96.1,199.6z"/>
	<path fill="none" stroke="#000000" d="M52.8,216.7c0,0.5,0,1,0,1.5c0,0.5,0,1.1,0.1,1.6l0.1-0.1L52.8,216.7z"/>
	<path fill="none" stroke="#000000" d="M86.6,194l2.7,0.9c-0.8-0.4-1.7-0.7-2.6-1L86.6,194z"/>
	<path fill="none" stroke="#000000" d="M78.4,192.3c-1,0-1.9,0.2-2.8,0.2h4.5l0.1-0.1C79.6,192.4,79,192.3,78.4,192.3z"/>
	<path fill="none" stroke="#000000" d="M53.2,213.7l1.4-5C54,210.3,53.5,212,53.2,213.7z"/>
	<path fill="none" stroke="#000000" d="M55.8,206.1l3-4.5C57.7,203,56.7,204.5,55.8,206.1z"/>
	<path fill="none" stroke="#000000" d="M104,216.7l-0.2,5c0.2-1.1,0.2-2.3,0.2-3.5C104.1,217.7,104.1,217.2,104,216.7z"/>
	<path fill="none" stroke="#000000" d="M103.7,213.7c-0.3-1.7-0.8-3.4-1.4-5L103.7,213.7z"/>
	<path fill="none" stroke="#000000" d="M52.8,219.8l-2.9,2.9"/>
	<line fill="none" stroke="#000000" x1="80.1" y1="192.5" x2="52.9" y2="219.7"/>
	<path fill="none" stroke="#000000" d="M81.9,190.7l-1.7,1.7"/>
	<line fill="none" stroke="#000000" x1="54.2" y1="226.4" x2="86.6" y2="194"/>
</g>
<g>
	<path fill="none" stroke="#000000" d="M327.1,284.1c-2.5-0.5-5.1-0.8-7.7-0.8c-20.6,0-37.2,16.7-37.2,37.2c0,2.6,0.3,5.2,0.8,7.7
		L327.1,284.1z"/>
	<path fill="none" stroke="#000000" d="M333.6,286.1L285,334.8c1,2.5,2.3,4.9,3.9,7.1l51.8-51.8
		C338.5,288.5,336.1,287.2,333.6,286.1z"/>
	<path fill="none" stroke="#000000" d="M343.8,292.5L291.3,345c6.8,7.8,16.9,12.8,28.1,12.8c20.6,0,37.2-16.7,37.2-37.2
		C356.7,309.4,351.7,299.3,343.8,292.5z"/>
	<path fill="none" stroke="#000000" d="M288.9,341.8"/>
</g>
<polygon fill="none" stroke="#000000" points="74.6,334.2 257.2,525 190.2,364.1 67.6,445.6 "/>
</svg>
