<?xml version="1.0" encoding="UTF-8" standalone="no"?>
<!-- Created with Inkscape (http://www.inkscape.org/) -->

<svg
   xmlns:dc="http://purl.org/dc/elements/1.1/"
   xmlns:cc="http://creativecommons.org/ns#"
   xmlns:rdf="http://www.w3.org/1999/02/22-rdf-syntax-ns#"
   xmlns:svg="http://www.w3.org/2000/svg"
   xmlns="http://www.w3.org/2000/svg"
   xmlns:sodipodi="http://sodipodi.sourceforge.net/DTD/sodipodi-0.dtd"
   xmlns:inkscape="http://www.inkscape.org/namespaces/inkscape"
   width="640"
   height="640"
   id="svg2"
   version="1.1"
   inkscape:version="0.48.4 r"
   sodipodi:docname="shape.svg">
  <defs
     id="defs4" />
  <sodipodi:namedview
     id="base"
     pagecolor="#ffffff"
     bordercolor="#666666"
     borderopacity="1.0"
     inkscape:pageopacity="0.0"
     inkscape:pageshadow="2"
     inkscape:zoom="0.35"
     inkscape:cx="507.2364"
     inkscape:cy="520"
     inkscape:document-units="px"
     inkscape:current-layer="layer1"
     showgrid="false"
     inkscape:window-width="1366"
     inkscape:window-height="715"
     inkscape:window-x="-8"
     inkscape:window-y="-8"
     inkscape:window-maximized="1" />
  <metadata
     id="metadata7">
    <rdf:RDF>
      <cc:Work
         rdf:about="">
        <dc:format>image/svg+xml</dc:format>
        <dc:type
           rdf:resource="http://purl.org/dc/dcmitype/StillImage" />
        <dc:title></dc:title>
      </cc:Work>
    </rdf:RDF>
  </metadata>
  <g
     inkscape:label="Layer 1"
     inkscape:groupmode="layer"
     id="layer1"
     transform="translate(0,-412.36218)">
    <path
       style="fill:none;stroke:#000000;stroke-width:35.81806564;stroke-linecap:round;stroke-linejoin:miter;stroke-miterlimit:4;stroke-opacity:1;stroke-dasharray:none"
       d="m -529.28504,554.5346 c -45.48325,-185.18184 92.98274,-168.80878 146.19619,-120.20575 41.96545,38.32953 45.48326,181.93302 -32.48804,224.16749 -106.04281,57.43986 -3.2488,224.16748 68.22489,155.94259"
       id="path2985"
       inkscape:connector-curvature="0"
       sodipodi:nodetypes="cssc" />
    <path
       style="fill:none;stroke:#000000;stroke-width:35.81806564;stroke-linecap:round;stroke-miterlimit:4;stroke-opacity:1"
       d="m -293.16952,918.4007 c 13.75223,28.58201 -25.30639,51.97509 -55.80687,60.68009 -39.84044,11.3708 -67.1777,-6.22 -67.1777,-37.93847 0,-31.71842 12.71765,-49.3093 52.55808,-50.93374 31.32269,-1.27706 55.16521,-3.52631 70.42649,28.19212 z"
       id="path3755"
       inkscape:connector-curvature="0"
       sodipodi:nodetypes="sssss" />
    <path
       style="fill:#000000;fill-opacity:1;stroke:#000000;stroke-width:1.07295132px;stroke-linecap:butt;stroke-linejoin:miter;stroke-opacity:1"
       d="m 262.288,839.83026 c 55.65834,32.53706 63.09103,38.06226 96.09536,-5.92923 71.62339,-126.494 198.37451,-226.45267 249.90175,-330.35872 -43.09136,-80.39826 -52.478,-66.17632 -142.93784,-58.82456 C 404.04861,465.72594 273.68779,785.44762 262.288,839.83026 z"
       id="path3021"
       inkscape:connector-curvature="0"
       sodipodi:nodetypes="ccccc" />
    <path
       style="fill:none;stroke:#000000;stroke-width:35.81806564;stroke-linecap:round;stroke-miterlimit:4;stroke-opacity:1"
       d="m 296.26831,944.11861 c 0.62577,31.7122 -44.62268,36.75105 -75.98153,31.98885 -40.96172,-6.22039 -58.51219,-33.58356 -45.32649,-62.43141 13.18569,-28.84781 32.06507,-39.5598 68.97511,-24.47513 29.01878,11.8597 51.63852,19.7256 52.33291,54.91769 z"
       id="path3755-7"
       inkscape:connector-curvature="0"
       sodipodi:nodetypes="sssss" />
  </g>
</svg>
