<?xml version="1.0" encoding="UTF-8" standalone="no"?>
<!-- Created with Inkscape (http://www.inkscape.org/) -->

<svg
   xmlns:dc="http://purl.org/dc/elements/1.1/"
   xmlns:cc="http://creativecommons.org/ns#"
   xmlns:rdf="http://www.w3.org/1999/02/22-rdf-syntax-ns#"
   xmlns:svg="http://www.w3.org/2000/svg"
   xmlns="http://www.w3.org/2000/svg"
   xmlns:sodipodi="http://sodipodi.sourceforge.net/DTD/sodipodi-0.dtd"
   xmlns:inkscape="http://www.inkscape.org/namespaces/inkscape"
   width="1024px"
   height="768px"
   id="svg3012"
   version="1.1"
   inkscape:version="0.48.4 r"
   sodipodi:docname="drawing.svg"
   inkscape:export-filename="C:\Users\Yo\Documents\GitHub\sketchbook\illustration\data\drawing.png"
   inkscape:export-xdpi="90"
   inkscape:export-ydpi="90">
  <defs
     id="defs3014" />
  <sodipodi:namedview
     id="base"
     pagecolor="#ffffff"
     bordercolor="#666666"
     borderopacity="1.0"
     inkscape:pageopacity="0.0"
     inkscape:pageshadow="2"
     inkscape:zoom="0.5"
     inkscape:cx="512"
     inkscape:cy="382"
     inkscape:current-layer="layer1"
     inkscape:document-units="px"
     showgrid="false"
     inkscape:window-width="1366"
     inkscape:window-height="715"
     inkscape:window-x="-8"
     inkscape:window-y="-8"
     inkscape:window-maximized="1" />
  <metadata
     id="metadata3017">
    <rdf:RDF>
      <cc:Work
         rdf:about="">
        <dc:format>image/svg+xml</dc:format>
        <dc:type
           rdf:resource="http://purl.org/dc/dcmitype/StillImage" />
        <dc:title></dc:title>
      </cc:Work>
    </rdf:RDF>
  </metadata>
  <g
     id="layer1"
     inkscape:label="Layer 1"
     inkscape:groupmode="layer">
    <path
       sodipodi:type="arc"
       style="fill:#000000;fill-opacity:1"
       id="path3022"
       sodipodi:cx="588"
       sodipodi:cy="352"
       sodipodi:rx="286"
       sodipodi:ry="286"
       d="m 874,352 a 286,286 0 1 1 -572,0 286,286 0 1 1 572,0 z" />
    <path
       sodipodi:type="arc"
       style="fill:#999999;fill-opacity:1"
       id="path3024"
       sodipodi:cx="-76"
       sodipodi:cy="282"
       sodipodi:rx="108"
       sodipodi:ry="108"
       d="m 32,282 a 108,108 0 1 1 -216,0 108,108 0 1 1 216,0 z" />
    <path
       sodipodi:type="arc"
       style="fill:#999999;fill-opacity:1"
       id="path3026"
       sodipodi:cx="62"
       sodipodi:cy="542"
       sodipodi:rx="312"
       sodipodi:ry="312"
       d="m 374,542 a 312,312 0 1 1 -624,0 312,312 0 1 1 624,0 z" />
    <path
       sodipodi:type="arc"
       style="fill:#cccccc;fill-opacity:1"
       id="path3028"
       sodipodi:cx="380"
       sodipodi:cy="141"
       sodipodi:rx="184"
       sodipodi:ry="221"
       d="m 564,141 a 184,221 0 1 1 -368,0 184,221 0 1 1 368,0 z" />
    <path
       sodipodi:type="arc"
       style="fill:#333333;fill-opacity:1"
       id="path3030"
       sodipodi:cx="489"
       sodipodi:cy="611.63428"
       sodipodi:rx="109"
       sodipodi:ry="176.36571"
       d="m 598,611.63428 a 109,176.36571 0 1 1 -218,0 109,176.36571 0 1 1 218,0 z" />
    <path
       sodipodi:type="star"
       style="fill:#333333;fill-opacity:1"
       id="path3032"
       sodipodi:sides="5"
       sodipodi:cx="1002"
       sodipodi:cy="26"
       sodipodi:r1="288.9498"
       sodipodi:r2="217.21677"
       sodipodi:arg1="2.0530176"
       sodipodi:arg2="0.76032125"
       inkscape:flatsided="false"
       inkscape:rounded="0"
       inkscape:randomized="0"
       d="M 868.00002,281.99999 1159.3985,175.69586 717.12128,-22.333204 908.26957,221.95339 959.93524,-259.87155 786.67296,-2.5900059 1260.8813,-102.34513 962.651,-187.62298 1204.0622,232.5499 1193.008,-77.436259 z"
       inkscape:transform-center-x="3.3658382"
       inkscape:transform-center-y="1.854102"
       transform="translate(-122,562)" />
    <path
       sodipodi:type="arc"
       style="fill:#4d4d4d;fill-opacity:1"
       id="path3034"
       sodipodi:cx="828"
       sodipodi:cy="193"
       sodipodi:rx="186"
       sodipodi:ry="165"
       d="m 1014,193 a 186,165 0 1 1 -372,0 186,165 0 1 1 372,0 z" />
  </g>
</svg>
